<svg width="16" height="16" viewBox="0 0 16 16" fill="none" xmlns="http://www.w3.org/2000/svg">
<path d="M9.05934 2.38975C9.15599 2.12856 9.52541 2.12856 9.62205 2.38975L10.6998 5.30224L13.6123 6.37996C13.8735 6.47661 13.8735 6.84602 13.6123 6.94267L10.6998 8.02039L9.62205 10.9329C9.52541 11.1941 9.15599 11.1941 9.05934 10.9329L7.98162 8.02039L5.06913 6.94267C4.80794 6.84602 4.80794 6.47661 5.06913 6.37996L7.98162 5.30224L9.05934 2.38975Z" fill="#1C2024"/>
<path d="M4.26137 9.30027C4.35802 9.03908 4.72743 9.03908 4.82408 9.30027L5.33013 10.6679L6.69772 11.1739C6.9589 11.2706 6.9589 11.64 6.69772 11.7366L5.33013 12.2427L4.82408 13.6103C4.72743 13.8714 4.35802 13.8714 4.26137 13.6103L3.75532 12.2427L2.38773 11.7366C2.12655 11.64 2.12655 11.2706 2.38773 11.1739L3.75532 10.6679L4.26137 9.30027Z" fill="#1C2024"/>
</svg>
