<svg width="16" height="16" viewBox="0 0 16 16" fill="none" xmlns="http://www.w3.org/2000/svg">
<path d="M3 7.27344H13V10.9401C13 11.3083 12.7015 11.6068 12.3333 11.6068H3.66667C3.29848 11.6068 3 11.3083 3 10.9401V7.27344Z" fill="#666DFA" stroke="#333333" stroke-linejoin="round"/>
<path d="M3 2.27214C3 1.90395 3.29848 1.60547 3.66667 1.60547H12.3333C12.7015 1.60547 13 1.90395 13 2.27214V7.27214H3V2.27214Z" stroke="#333333" stroke-linejoin="round"/>
<path d="M5 13.6055C4.4477 13.6055 4 13.1578 4 12.6055V11.6055H6V12.6055C6 13.1578 5.5523 13.6055 5 13.6055Z" fill="#666DFA" stroke="#333333" stroke-linecap="round" stroke-linejoin="round"/>
<path d="M11 13.6055C10.4477 13.6055 10 13.1578 10 12.6055V11.6055H12V12.6055C12 13.1578 11.5523 13.6055 11 13.6055Z" fill="#666DFA" stroke="#333333" stroke-linecap="round" stroke-linejoin="round"/>
<path d="M2 3.60547V4.9388" stroke="#333333" stroke-linecap="round"/>
<path d="M14 3.60547V4.9388" stroke="#333333" stroke-linecap="round"/>
<path d="M5.00016 10.2708C5.36835 10.2708 5.66683 9.97236 5.66683 9.60417C5.66683 9.23598 5.36835 8.9375 5.00016 8.9375C4.63197 8.9375 4.3335 9.23598 4.3335 9.60417C4.3335 9.97236 4.63197 10.2708 5.00016 10.2708Z" fill="white"/>
<path d="M11.0002 10.2708C11.3684 10.2708 11.6668 9.97236 11.6668 9.60417C11.6668 9.23598 11.3684 8.9375 11.0002 8.9375C10.632 8.9375 10.3335 9.23598 10.3335 9.60417C10.3335 9.97236 10.632 10.2708 11.0002 10.2708Z" fill="white"/>
</svg>
